<svg xmlns="http://www.w3.org/2000/svg" viewBox="0 0 63 7" shape-rendering="crispEdges"><rect x="0" y="0" width="1" height="1" fill="#E8ECE9"/><rect x="1" y="0" width="1" height="1" fill="#E8ECE9"/><rect x="2" y="0" width="1" height="1" fill="#E8ECE9"/><rect x="3" y="0" width="1" height="1" fill="#E8ECE9"/><rect x="4" y="0" width="1" height="1" fill="#E8ECE9"/><rect x="5" y="0" width="1" height="1" fill="#E8ECE9"/><rect x="6" y="0" width="1" height="1" fill="#E8ECE9"/><rect x="0" y="1" width="1" height="1" fill="#E8ECE9"/><rect x="6" y="1" width="1" height="1" fill="#E8ECE9"/><rect x="0" y="2" width="1" height="1" fill="#E8ECE9"/><rect x="2" y="2" width="1" height="1" fill="#E8ECE9"/><rect x="3" y="2" width="1" height="1" fill="#E8ECE9"/><rect x="4" y="2" width="1" height="1" fill="#E8ECE9"/><rect x="6" y="2" width="1" height="1" fill="#E8ECE9"/><rect x="0" y="3" width="1" height="1" fill="#E8ECE9"/><rect x="2" y="3" width="1" height="1" fill="#E8ECE9"/><rect x="3" y="3" width="1" height="1" fill="#39FF88"/><rect x="4" y="3" width="1" height="1" fill="#E8ECE9"/><rect x="6" y="3" width="1" height="1" fill="#E8ECE9"/><rect x="0" y="4" width="1" height="1" fill="#E8ECE9"/><rect x="2" y="4" width="1" height="1" fill="#E8ECE9"/><rect x="3" y="4" width="1" height="1" fill="#E8ECE9"/><rect x="4" y="4" width="1" height="1" fill="#E8ECE9"/><rect x="6" y="4" width="1" height="1" fill="#E8ECE9"/><rect x="0" y="5" width="1" height="1" fill="#E8ECE9"/><rect x="6" y="5" width="1" height="1" fill="#E8ECE9"/><rect x="0" y="6" width="1" height="1" fill="#E8ECE9"/><rect x="1" y="6" width="1" height="1" fill="#E8ECE9"/><rect x="2" y="6" width="1" height="1" fill="#E8ECE9"/><rect x="3" y="6" width="1" height="1" fill="#E8ECE9"/><rect x="4" y="6" width="1" height="1" fill="#E8ECE9"/><rect x="5" y="6" width="1" height="1" fill="#E8ECE9"/><rect x="6" y="6" width="1" height="1" fill="#E8ECE9"/><rect x="10" y="0" width="1" height="1" fill="#E8ECE9"/><rect x="11" y="0" width="1" height="1" fill="#E8ECE9"/><rect x="12" y="0" width="1" height="1" fill="#E8ECE9"/><rect x="13" y="0" width="1" height="1" fill="#E8ECE9"/><rect x="14" y="0" width="1" height="1" fill="#E8ECE9"/><rect x="12" y="1" width="1" height="1" fill="#E8ECE9"/><rect x="12" y="2" width="1" height="1" fill="#E8ECE9"/><rect x="12" y="3" width="1" height="1" fill="#E8ECE9"/><rect x="12" y="4" width="1" height="1" fill="#E8ECE9"/><rect x="12" y="5" width="1" height="1" fill="#E8ECE9"/><rect x="12" y="6" width="1" height="1" fill="#E8ECE9"/><rect x="16" y="0" width="1" height="1" fill="#E8ECE9"/><rect x="17" y="0" width="1" height="1" fill="#E8ECE9"/><rect x="18" y="0" width="1" height="1" fill="#E8ECE9"/><rect x="19" y="0" width="1" height="1" fill="#E8ECE9"/><rect x="16" y="1" width="1" height="1" fill="#E8ECE9"/><rect x="20" y="1" width="1" height="1" fill="#E8ECE9"/><rect x="16" y="2" width="1" height="1" fill="#E8ECE9"/><rect x="20" y="2" width="1" height="1" fill="#E8ECE9"/><rect x="16" y="3" width="1" height="1" fill="#E8ECE9"/><rect x="17" y="3" width="1" height="1" fill="#E8ECE9"/><rect x="18" y="3" width="1" height="1" fill="#E8ECE9"/><rect x="19" y="3" width="1" height="1" fill="#E8ECE9"/><rect x="16" y="4" width="1" height="1" fill="#E8ECE9"/><rect x="18" y="4" width="1" height="1" fill="#E8ECE9"/><rect x="16" y="5" width="1" height="1" fill="#E8ECE9"/><rect x="19" y="5" width="1" height="1" fill="#E8ECE9"/><rect x="16" y="6" width="1" height="1" fill="#E8ECE9"/><rect x="20" y="6" width="1" height="1" fill="#E8ECE9"/><rect x="22" y="0" width="1" height="1" fill="#E8ECE9"/><rect x="23" y="0" width="1" height="1" fill="#E8ECE9"/><rect x="24" y="0" width="1" height="1" fill="#E8ECE9"/><rect x="25" y="0" width="1" height="1" fill="#E8ECE9"/><rect x="26" y="0" width="1" height="1" fill="#E8ECE9"/><rect x="22" y="1" width="1" height="1" fill="#E8ECE9"/><rect x="22" y="2" width="1" height="1" fill="#E8ECE9"/><rect x="22" y="3" width="1" height="1" fill="#E8ECE9"/><rect x="23" y="3" width="1" height="1" fill="#E8ECE9"/><rect x="24" y="3" width="1" height="1" fill="#E8ECE9"/><rect x="25" y="3" width="1" height="1" fill="#E8ECE9"/><rect x="22" y="4" width="1" height="1" fill="#E8ECE9"/><rect x="22" y="5" width="1" height="1" fill="#E8ECE9"/><rect x="22" y="6" width="1" height="1" fill="#E8ECE9"/><rect x="23" y="6" width="1" height="1" fill="#E8ECE9"/><rect x="24" y="6" width="1" height="1" fill="#E8ECE9"/><rect x="25" y="6" width="1" height="1" fill="#E8ECE9"/><rect x="26" y="6" width="1" height="1" fill="#E8ECE9"/><rect x="28" y="0" width="1" height="1" fill="#E8ECE9"/><rect x="32" y="0" width="1" height="1" fill="#E8ECE9"/><rect x="28" y="1" width="1" height="1" fill="#E8ECE9"/><rect x="29" y="1" width="1" height="1" fill="#E8ECE9"/><rect x="32" y="1" width="1" height="1" fill="#E8ECE9"/><rect x="28" y="2" width="1" height="1" fill="#E8ECE9"/><rect x="30" y="2" width="1" height="1" fill="#E8ECE9"/><rect x="32" y="2" width="1" height="1" fill="#E8ECE9"/><rect x="28" y="3" width="1" height="1" fill="#E8ECE9"/><rect x="30" y="3" width="1" height="1" fill="#E8ECE9"/><rect x="32" y="3" width="1" height="1" fill="#E8ECE9"/><rect x="28" y="4" width="1" height="1" fill="#E8ECE9"/><rect x="31" y="4" width="1" height="1" fill="#E8ECE9"/><rect x="32" y="4" width="1" height="1" fill="#E8ECE9"/><rect x="28" y="5" width="1" height="1" fill="#E8ECE9"/><rect x="32" y="5" width="1" height="1" fill="#E8ECE9"/><rect x="28" y="6" width="1" height="1" fill="#E8ECE9"/><rect x="32" y="6" width="1" height="1" fill="#E8ECE9"/><rect x="35" y="0" width="1" height="1" fill="#E8ECE9"/><rect x="36" y="0" width="1" height="1" fill="#E8ECE9"/><rect x="37" y="0" width="1" height="1" fill="#E8ECE9"/><rect x="38" y="0" width="1" height="1" fill="#E8ECE9"/><rect x="34" y="1" width="1" height="1" fill="#E8ECE9"/><rect x="34" y="2" width="1" height="1" fill="#E8ECE9"/><rect x="34" y="3" width="1" height="1" fill="#E8ECE9"/><rect x="34" y="4" width="1" height="1" fill="#E8ECE9"/><rect x="34" y="5" width="1" height="1" fill="#E8ECE9"/><rect x="35" y="6" width="1" height="1" fill="#E8ECE9"/><rect x="36" y="6" width="1" height="1" fill="#E8ECE9"/><rect x="37" y="6" width="1" height="1" fill="#E8ECE9"/><rect x="38" y="6" width="1" height="1" fill="#E8ECE9"/><rect x="40" y="0" width="1" height="1" fill="#E8ECE9"/><rect x="44" y="0" width="1" height="1" fill="#E8ECE9"/><rect x="40" y="1" width="1" height="1" fill="#E8ECE9"/><rect x="44" y="1" width="1" height="1" fill="#E8ECE9"/><rect x="40" y="2" width="1" height="1" fill="#E8ECE9"/><rect x="44" y="2" width="1" height="1" fill="#E8ECE9"/><rect x="40" y="3" width="1" height="1" fill="#E8ECE9"/><rect x="41" y="3" width="1" height="1" fill="#E8ECE9"/><rect x="42" y="3" width="1" height="1" fill="#E8ECE9"/><rect x="43" y="3" width="1" height="1" fill="#E8ECE9"/><rect x="44" y="3" width="1" height="1" fill="#E8ECE9"/><rect x="40" y="4" width="1" height="1" fill="#E8ECE9"/><rect x="44" y="4" width="1" height="1" fill="#E8ECE9"/><rect x="40" y="5" width="1" height="1" fill="#E8ECE9"/><rect x="44" y="5" width="1" height="1" fill="#E8ECE9"/><rect x="40" y="6" width="1" height="1" fill="#E8ECE9"/><rect x="44" y="6" width="1" height="1" fill="#E8ECE9"/><rect x="46" y="0" width="1" height="1" fill="#E8ECE9"/><rect x="47" y="0" width="1" height="1" fill="#E8ECE9"/><rect x="48" y="0" width="1" height="1" fill="#E8ECE9"/><rect x="49" y="0" width="1" height="1" fill="#E8ECE9"/><rect x="50" y="0" width="1" height="1" fill="#E8ECE9"/><rect x="46" y="1" width="1" height="1" fill="#E8ECE9"/><rect x="46" y="2" width="1" height="1" fill="#E8ECE9"/><rect x="46" y="3" width="1" height="1" fill="#E8ECE9"/><rect x="47" y="3" width="1" height="1" fill="#E8ECE9"/><rect x="48" y="3" width="1" height="1" fill="#E8ECE9"/><rect x="49" y="3" width="1" height="1" fill="#E8ECE9"/><rect x="46" y="4" width="1" height="1" fill="#E8ECE9"/><rect x="46" y="5" width="1" height="1" fill="#E8ECE9"/><rect x="46" y="6" width="1" height="1" fill="#E8ECE9"/><rect x="47" y="6" width="1" height="1" fill="#E8ECE9"/><rect x="48" y="6" width="1" height="1" fill="#E8ECE9"/><rect x="49" y="6" width="1" height="1" fill="#E8ECE9"/><rect x="50" y="6" width="1" height="1" fill="#E8ECE9"/><rect x="52" y="0" width="1" height="1" fill="#E8ECE9"/><rect x="53" y="0" width="1" height="1" fill="#E8ECE9"/><rect x="54" y="0" width="1" height="1" fill="#E8ECE9"/><rect x="55" y="0" width="1" height="1" fill="#E8ECE9"/><rect x="52" y="1" width="1" height="1" fill="#E8ECE9"/><rect x="56" y="1" width="1" height="1" fill="#E8ECE9"/><rect x="52" y="2" width="1" height="1" fill="#E8ECE9"/><rect x="56" y="2" width="1" height="1" fill="#E8ECE9"/><rect x="52" y="3" width="1" height="1" fill="#E8ECE9"/><rect x="53" y="3" width="1" height="1" fill="#E8ECE9"/><rect x="54" y="3" width="1" height="1" fill="#E8ECE9"/><rect x="55" y="3" width="1" height="1" fill="#E8ECE9"/><rect x="52" y="4" width="1" height="1" fill="#E8ECE9"/><rect x="54" y="4" width="1" height="1" fill="#E8ECE9"/><rect x="52" y="5" width="1" height="1" fill="#E8ECE9"/><rect x="55" y="5" width="1" height="1" fill="#E8ECE9"/><rect x="52" y="6" width="1" height="1" fill="#E8ECE9"/><rect x="56" y="6" width="1" height="1" fill="#E8ECE9"/><rect x="59" y="0" width="1" height="1" fill="#E8ECE9"/><rect x="60" y="0" width="1" height="1" fill="#E8ECE9"/><rect x="61" y="0" width="1" height="1" fill="#E8ECE9"/><rect x="62" y="0" width="1" height="1" fill="#E8ECE9"/><rect x="58" y="1" width="1" height="1" fill="#E8ECE9"/><rect x="58" y="2" width="1" height="1" fill="#E8ECE9"/><rect x="59" y="3" width="1" height="1" fill="#E8ECE9"/><rect x="60" y="3" width="1" height="1" fill="#E8ECE9"/><rect x="61" y="3" width="1" height="1" fill="#E8ECE9"/><rect x="62" y="4" width="1" height="1" fill="#E8ECE9"/><rect x="62" y="5" width="1" height="1" fill="#E8ECE9"/><rect x="58" y="6" width="1" height="1" fill="#E8ECE9"/><rect x="59" y="6" width="1" height="1" fill="#E8ECE9"/><rect x="60" y="6" width="1" height="1" fill="#E8ECE9"/><rect x="61" y="6" width="1" height="1" fill="#E8ECE9"/></svg>