<svg xmlns="http://www.w3.org/2000/svg" viewBox="0 0 5 5"><rect x="0.06" y="0.06" width=".88" height=".88" fill="#E8ECE9"/><rect x="1.06" y="0.06" width=".88" height=".88" fill="#E8ECE9"/><rect x="2.06" y="0.06" width=".88" height=".88" fill="#E8ECE9"/><rect x="3.06" y="0.06" width=".88" height=".88" fill="#E8ECE9"/><rect x="4.06" y="0.06" width=".88" height=".88" fill="#E8ECE9"/><rect x="0.06" y="1.06" width=".88" height=".88" fill="#E8ECE9"/><rect x="4.06" y="1.06" width=".88" height=".88" fill="#E8ECE9"/><rect x="0.06" y="2.06" width=".88" height=".88" fill="#E8ECE9"/><circle cx="2.5" cy="2.5" r=".44" fill="#39FF88"/><rect x="4.06" y="2.06" width=".88" height=".88" fill="#E8ECE9"/><rect x="0.06" y="3.06" width=".88" height=".88" fill="#E8ECE9"/><rect x="4.06" y="3.06" width=".88" height=".88" fill="#E8ECE9"/><rect x="0.06" y="4.06" width=".88" height=".88" fill="#E8ECE9"/><rect x="1.06" y="4.06" width=".88" height=".88" fill="#E8ECE9"/><circle cx="2.5" cy="4.5" r=".44" fill="#E8ECE9"/><rect x="3.06" y="4.06" width=".88" height=".88" fill="#E8ECE9"/><rect x="4.06" y="4.06" width=".88" height=".88" fill="#E8ECE9"/></svg>